<?xml version="1.0" standalone="no"?>
<!DOCTYPE svg PUBLIC "-//W3C//DTD SVG 20010904//EN"
 "http://www.w3.org/TR/2001/REC-SVG-20010904/DTD/svg10.dtd">
<svg version="1.0" xmlns="http://www.w3.org/2000/svg"
 width="1018.000000pt" height="1018.000000pt" viewBox="0 0 1018.000000 1018.000000"
 preserveAspectRatio="xMidYMid meet">
<metadata>
Created by potrace 1.14, written by Peter Selinger 2001-2017
</metadata>
<g transform="translate(0.000000,1018.000000) scale(0.100000,-0.100000)"
fill="#000000" stroke="none">
<path d="M545 10164 c-259 -53 -449 -236 -522 -501 -4 -15 -9 -2067 -10 -4558
-3 -4495 -3 -4531 17 -4600 36 -125 86 -212 175 -300 112 -111 229 -170 380
-191 81 -11 8977 -6 9045 5 262 43 476 251 535 521 9 43 11 1092 10 4565 -1
2481 -5 4524 -9 4540 -31 138 -98 258 -192 345 -95 88 -174 133 -297 167 -58
16 -347 17 -4567 18 -3507 1 -4518 -2 -4565 -11z"/>
</g>
</svg>
