<svg width="219" height="100" viewBox="0 0 219 100" fill="none" xmlns="http://www.w3.org/2000/svg">
<path d="M105.785 34.3206H117.58C122.948 34.3206 125.519 36.7399 125.519 40.7474C125.519 44.1867 123.213 46.7208 120.114 47.552C122.722 48.1943 124.122 50.0083 124.122 52.6553C124.122 57.494 120.227 60.7834 114.293 60.7834H100.495L105.787 34.3206H105.785ZM113.761 55.4893C116.219 55.4893 117.73 54.2417 117.73 52.2759C117.73 50.8024 116.71 49.9324 114.705 49.9324H108.997L107.901 55.4893H113.759H113.761ZM115.235 44.6402C117.465 44.6402 118.789 43.4685 118.789 41.7674C118.789 40.4439 117.882 39.6127 116.068 39.6127H111.077L110.057 44.6402H115.237H115.235Z" fill="#F16767"/>
<path d="M139.504 34.3206H146.421L151.336 60.7834H144.757L144.039 55.717H133.832L131.072 60.7834H124.04L139.502 34.3206H139.504ZM143.208 50.1231L141.884 40.8604L136.857 50.1231H143.208Z" fill="#F16767"/>
<path d="M154.475 52.1629H160.713C161.054 54.6193 162.642 56.2075 165.665 56.2075C168.236 56.2075 170.05 54.884 170.05 52.8812C170.05 51.7465 169.408 50.9153 167.668 50.4988L162.677 49.3271C159.01 48.4571 156.743 46.3784 156.743 42.7503C156.743 37.0805 161.128 33.7911 167.516 33.7911C173.904 33.7911 177.232 37.1564 177.534 42.2968H171.335C171.107 40.4827 169.861 38.8945 167.138 38.8945C164.947 38.8945 163.283 39.8015 163.283 41.6545C163.283 42.7133 163.888 43.3186 165.212 43.6203L170.391 44.792C174.7 45.7749 176.666 48.0055 176.666 51.7094C176.666 57.1904 172.318 61.3109 165.136 61.3109C159.049 61.3109 154.853 57.8327 154.475 52.1629Z" fill="#F16767"/>
<path d="M184.377 34.3206H190.88L185.588 60.7834H179.085L184.377 34.3206Z" fill="#F16767"/>
<path d="M200.519 46.8708L194.508 34.3206H201.426L204.941 41.9562L211.027 34.3206H218.928L207.701 47.589L214.089 60.7815H207.057L203.353 52.7664L196.7 60.7815H188.761L200.517 46.8708H200.519Z" fill="#F16767"/>
<path fill-rule="evenodd" clip-rule="evenodd" d="M100 18.9493L81.051 0L0.000366211 81.0507L18.9497 100L49.9994 68.9484L81.051 100L100 81.0507L68.9488 49.9991L100 18.9493Z" fill="#F16767"/>
<path d="M18.9489 0.000342943L0 18.9493L28.4228 47.372L47.3717 28.4231L18.9489 0.000342943Z" fill="#F16767"/>
</svg>
