<svg width="217" height="100" viewBox="0 0 217 100" fill="none" xmlns="http://www.w3.org/2000/svg">
<path d="M110.886 27.0054C112.004 31.0342 113.273 36.7053 115.808 40.5841C118.49 44.7629 121.995 47.5995 124.903 47.5995C126.394 47.5995 127.438 47.2994 127.885 47.2994C128.407 47.2994 128.557 47.4495 128.557 47.8215C128.557 48.4937 126.32 50.6581 123.86 50.6581C120.131 50.6581 115.882 47.8975 112.749 42.6745C109.551 37.3774 107.904 31.2582 106.934 26.9314C106.334 26.6333 106.115 26.1852 106.115 25.289C106.115 23.8727 108.054 23.5727 109.395 23.5727C115.21 23.5727 124.829 15.5891 124.829 10.218C124.829 6.48726 122.144 4.77092 116.777 4.77092C103.43 4.77092 90.6065 15.217 90.6065 21.7083C90.6065 22.3804 91.2062 22.9766 91.2062 23.7227C91.2062 25.065 90.0068 25.9612 88.6715 25.9612C87.3362 25.9612 86.3567 24.9209 86.3567 23.2786C86.3567 12.2364 101.349 1.71631 117.741 1.71631C124.537 1.71631 128.627 4.25282 128.627 9.84794C128.631 16.7873 117.597 25.4431 110.886 27.0054ZM115.062 10.5201C115.062 11.1922 113.495 12.9085 112.525 13.8027C110.512 15.6031 107.158 19.6239 104.847 23.6527C99.1801 33.4267 98.4345 39.8419 98.4345 43.5727C98.4345 44.3948 98.4345 45.5871 97.0932 45.5871C96.0497 45.5871 94.2586 44.6929 94.2586 43.0506C94.2586 41.7083 95.2282 33.4267 101.193 22.6825C107.158 11.9384 111.482 8.35564 112.825 8.35564C114.017 8.35564 115.062 9.02777 115.062 10.5201Z" fill="#F16767"/>
<path d="M142.574 28.8057C143.244 28.8057 143.773 29.1798 143.773 29.926C143.773 30.7461 143.4 31.2682 142.506 32.3885C139 36.7153 132.961 43.1326 124.685 43.1326C122.224 43.1326 120.137 41.1922 120.137 37.9096C120.137 37.4615 119.764 37.2374 119.764 36.4173C119.764 35.6711 120.435 34.7749 121.181 34.5509C124.013 27.9116 129.159 24.6289 133.037 24.6289C134.602 24.6289 136.317 25.8291 136.317 27.4635C136.317 31.3422 130.054 35.7451 125.133 36.8654C124.163 37.0874 123.866 37.6095 123.866 38.1336C123.866 38.7337 124.535 40.148 125.952 40.148C132.215 40.148 137.211 34.4029 139.895 31.1202C140.785 29.994 141.752 28.8057 142.574 28.8057ZM124.903 34.1788C127.588 33.6567 132.657 30 132.657 28.7317C132.657 28.2836 132.507 27.9856 132.057 27.9856C130.272 27.9796 126.32 31.9344 124.903 34.1728V34.1788Z" fill="#F16767"/>
<path d="M163.151 3.20064C163.151 9.09382 156.889 19.4659 145.333 28.4937C144.733 29.5379 143.915 32.4485 143.841 33.4947C148.015 28.4937 152.787 24.2429 157.035 24.2429C158.974 24.2429 160.233 25.6611 160.233 27.8236C160.233 34.0908 154.492 42.5985 148.827 42.5985C146.068 42.5985 145.397 41.3283 145.397 39.986C145.397 39.0898 146.216 38.1216 147.41 38.1216C148.081 38.1216 148.751 38.8678 149.422 38.8678C152.181 38.8678 156.357 32.5245 156.357 29.0178C156.357 28.2717 155.685 27.8176 155.014 27.8176C153.598 27.8176 150.392 30.7281 146.738 34.757C145.323 36.3233 143.755 39.0838 143.755 40.204C143.755 41.4723 142.116 42.9646 141.221 42.9646C140.251 42.9646 139.422 42.5165 139.422 39.906C139.422 30.6541 143.22 20.134 147.697 11.8524C152.123 3.80076 155.845 0 160.095 0C161.884 0 163.151 1.56631 163.151 3.20064ZM151.074 12.6845C149.258 16.2127 147.664 19.8505 146.3 23.5767C154.354 17.6035 159.797 6.71534 159.797 4.32687C159.797 3.80476 159.497 3.43269 158.828 3.43269C157.782 3.43269 154.354 6.26725 151.074 12.6845Z" fill="#F16767"/>
<path d="M182.09 28.8057C182.759 28.8057 183.289 29.1798 183.289 29.926C183.289 30.7461 182.915 31.2682 182.02 32.3885C178.516 36.7153 172.477 43.1326 164.201 43.1326C161.74 43.1326 159.653 41.1922 159.653 37.9096C159.653 37.4615 159.279 37.2374 159.279 36.4173C159.279 35.6711 159.951 34.7749 160.697 34.5509C163.529 27.9116 168.675 24.6289 172.553 24.6289C174.118 24.6289 175.833 25.8291 175.833 27.4635C175.833 31.3422 169.57 35.7451 164.639 36.8654C163.669 37.0874 163.371 37.6095 163.371 38.1336C163.371 38.7337 164.043 40.148 165.458 40.148C171.721 40.148 176.717 34.4029 179.401 31.1202C180.309 29.994 181.27 28.8057 182.09 28.8057ZM164.419 34.1788C167.103 33.6567 172.173 30 172.173 28.7317C172.173 28.2836 172.023 27.9856 171.573 27.9856C169.786 27.9796 165.836 31.9344 164.419 34.1728V34.1788Z" fill="#F16767"/>
<path d="M197.9 28.8057C198.571 28.8057 199.099 29.1798 199.099 29.926C199.099 30.7461 198.725 31.2682 197.832 32.3885C194.328 36.7153 187.095 42.9086 180.757 42.9086C179.117 42.9086 176.209 41.6403 176.209 38.0576C176.209 33.2086 183.217 24.6289 189.108 24.6289C190.897 24.6289 192.76 26.1952 192.76 27.9116C192.76 30.224 190.376 32.3124 188.81 32.3124C188.139 32.3124 187.467 31.8664 187.467 30.8201C187.467 30.15 187.915 29.6199 188.363 29.3278C188.734 29.1038 189.108 28.8057 189.108 28.4337C189.108 28.3577 188.958 28.2096 188.734 28.2096C186.126 28.2096 180.235 33.8107 180.235 37.8335C180.235 38.8037 180.834 39.6999 181.726 39.6999C186.572 39.6999 192.612 34.5509 195.221 31.1202C196.101 29.994 197.076 28.8057 197.9 28.8057Z" fill="#F16767"/>
<path d="M215.565 35.4411C216.236 35.4411 216.764 35.8131 216.764 36.5593C216.764 37.3814 215.871 38.2756 214.677 39.3958C212.664 41.2602 210.353 42.2304 208.638 42.2304C206.178 42.2304 204.984 40.5141 204.984 38.4297C204.984 37.6075 205.058 36.8633 205.134 35.8171C202.971 37.9816 197.902 43.0546 194.539 43.0546C193.57 43.0546 192.005 41.7123 192.005 39.7719C192.005 32.0864 200.654 24.6269 206.319 24.6269C207.519 24.6269 208.632 25.373 209.378 26.2672C209.602 26.2672 210.421 24.7749 211.539 24.7749C212.956 24.7749 213.776 25.5951 213.776 26.6413C213.776 27.9095 211.093 31.1182 210.197 33.0566C209.452 34.5489 208.856 36.1912 208.856 37.2354C208.856 37.9816 209.154 38.8017 210.056 38.8017C210.801 38.8017 211.855 38.2796 212.964 37.3094C214 36.3352 214.745 35.4411 215.565 35.4411ZM196.031 38.4257C196.031 38.7977 196.329 39.0258 196.702 39.0258C197.82 39.0258 206.991 31.0422 206.991 29.6239C206.991 28.8017 206.319 28.1316 205.352 28.1316C202.369 28.1296 196.031 34.993 196.031 38.4257Z" fill="#F16767"/>
<path d="M129.691 69.1558C117.165 69.0138 107.546 62.0664 107.546 54.1588C107.546 51.5463 108.146 50.7261 109.707 50.7261C111.198 50.7261 111.572 51.9264 111.572 54.1588C111.572 60.202 119.768 65.6491 131.404 65.6491C138.114 53.5607 143.855 44.907 151.393 44.907C154.898 44.907 157.508 46.8454 157.508 50.5761C157.508 58.2617 149.313 66.7674 134.246 69.0058C131.859 73.7067 128.953 78.6317 128.953 78.6317C134.246 81.9884 137.303 86.6153 137.303 91.9124C137.303 93.2547 136.259 94.4489 134.992 94.4489C133.501 94.4489 132.755 93.4047 132.755 92.2104C132.755 91.1662 133.053 90.3441 133.053 89.4499C133.053 86.7634 130.666 83.6307 126.938 81.5403C119.93 92.5825 111.878 99.97 101.291 99.97C93.537 99.97 88.0978 96.0892 88.0978 88.4797C88.0978 81.0922 95.628 73.7067 108.228 73.7067C114.79 73.7067 120.979 74.907 125.453 76.8394C126.262 75.6471 128.135 72.3645 129.691 69.1558ZM91.7419 88.3297C91.7419 93.2547 95.2462 96.3893 101.359 96.3893C110.083 96.3893 117.613 88.7778 123.578 79.75C119.552 78.1076 113.959 77.1394 107.92 77.1394C97.2591 77.1394 91.7419 83.4807 91.7419 88.3297ZM151.324 48.4877C146.626 48.4877 141.78 55.6511 136.263 65.125C146.626 63.1106 153.71 56.0972 153.71 51.0982C153.7 49.4579 152.655 48.4877 151.324 48.4877Z" fill="#F16767"/>
<path d="M162.718 71.9904C163.387 71.9904 163.917 72.3645 163.917 73.1106C163.917 73.9308 163.543 74.4529 162.65 75.5711C159.142 79.816 152.433 86.0172 148.629 86.0172C147.064 86.0172 145.349 84.675 145.349 82.0624C145.349 78.7798 149.147 71.4603 149.746 70.3481C150.64 68.8558 151.385 67.6636 152.431 67.6636C153.476 67.6636 154.294 68.2637 154.294 69.2299C154.294 70.2741 153.772 70.7962 153.325 71.4683C151.164 74.975 149.077 80.124 149.077 81.6163C149.077 82.1384 149.45 82.8166 150.12 82.8166C152.133 82.8166 157.502 77.7436 160.037 74.3109C160.933 73.1847 161.9 71.9904 162.718 71.9904ZM161.896 56.5453C161.896 58.4857 159.883 59.68 158.916 59.68C157.716 59.68 157.274 58.1116 157.274 56.9934C157.274 55.7932 158.474 54.3069 160.107 54.3069C161.007 54.3069 161.9 54.755 161.9 56.5453H161.896Z" fill="#F16767"/>
<path d="M197.316 71.9904C197.988 71.9904 198.515 72.3645 198.515 73.1106C198.515 73.9308 198.142 74.4529 197.248 75.5711C194.855 78.6318 188.89 86.0172 184.79 86.0172C182.554 86.0172 181.286 84.4509 181.286 81.7644C181.286 78.7798 182.927 74.825 182.927 73.1106C182.934 72.9627 182.884 72.8178 182.787 72.706C182.689 72.5943 182.553 72.5243 182.406 72.5105C180.243 72.5105 174.278 80.1961 173.158 82.9566C172.413 84.757 171.743 85.9412 170.774 85.9412C170.499 85.9319 170.229 85.8685 169.98 85.7546C169.73 85.6407 169.505 85.4785 169.318 85.2774C169.131 85.0763 168.985 84.8402 168.89 84.5827C168.794 84.3252 168.75 84.0513 168.761 83.7768C168.761 83.2547 169.43 81.7624 170.028 80.046C170.914 77.1395 172.113 73.6327 172.113 72.5125C172.113 71.7664 171.667 71.6183 171.069 71.6183C170.25 71.6183 166.298 74.0048 163.837 77.5855C162.42 79.5999 161.376 82.0624 160.557 83.7868C159.587 85.7272 159.587 86.8454 158.47 86.8454C157.724 86.8454 156.755 86.0252 156.755 84.831C156.755 83.2647 158.992 78.4157 162.272 68.1937C162.872 66.3273 163.763 65.2831 164.583 65.2831C165.626 65.2831 166.522 65.6572 166.522 67.0734C166.522 68.1176 165.104 71.4023 164.435 73.1927C166.596 70.6562 170.25 67.9696 172.031 67.9696C173.448 67.9696 175.907 68.7158 175.907 70.8802C175.878 72.0362 175.729 73.186 175.461 74.3109C177.922 71.4023 181.658 68.7898 183.885 68.7898C185.152 68.7898 186.793 69.686 186.793 71.4763C186.793 74.677 184.706 78.0416 184.706 81.4003C184.706 82.2205 184.93 82.7426 185.526 82.7426C187.837 82.7426 192.087 77.7416 194.621 74.3109C195.527 73.1847 196.5 71.9904 197.316 71.9904Z" fill="#F16767"/>
<path d="M214.987 78.6317C215.659 78.6317 216.186 79.0038 216.186 79.7499C216.186 80.5701 215.291 81.4663 214.098 82.5845C212.085 84.4509 209.774 85.4211 208.059 85.4211C205.598 85.4211 204.404 83.7047 204.404 81.6203C204.404 80.7981 204.48 80.052 204.554 79.0078C202.391 81.1722 197.322 86.2452 193.96 86.2452C192.99 86.2452 191.423 84.903 191.423 82.9626C191.423 75.277 200.073 67.8156 205.74 67.8156C206.939 67.8156 208.051 68.5617 208.796 69.4579C209.02 69.4579 209.84 67.9656 210.959 67.9656C212.374 67.9656 213.196 68.7857 213.196 69.83C213.196 71.0982 210.511 74.3068 209.616 76.2472C208.87 77.7395 208.274 79.3819 208.274 80.4261C208.274 81.1722 208.572 81.9924 209.474 81.9924C210.219 81.9924 211.263 81.4703 212.38 80.5001C213.422 79.5259 214.167 78.6317 214.987 78.6317ZM195.453 81.6163C195.453 81.9884 195.751 82.2164 196.123 82.2164C197.242 82.2164 206.413 74.2328 206.413 72.8145C206.413 71.9944 205.742 71.3223 204.772 71.3223C201.79 71.3183 195.453 78.1836 195.453 81.6163Z" fill="#F16767"/>
<path d="M80.6096 31.7864C79.2659 26.828 76.989 22.1718 73.901 18.0676C67.7167 9.75316 58.6155 4.09062 48.4282 2.21902C38.241 0.347424 27.7234 2.40562 18.9911 7.9796C14.6798 10.7307 10.9155 14.2577 7.88872 18.3817C3.34138 24.5793 0.639908 31.9384 0.0966964 39.6079C-0.0758584 42.1419 -0.0169775 44.6862 0.272607 47.2095C1.14084 54.7741 4.12829 61.939 8.89038 67.8778C13.6525 73.8166 19.9952 78.2873 27.1869 80.7742C29.5493 81.5944 31.9854 82.1846 34.4612 82.5365C35.6965 82.7026 36.9359 82.8326 38.1813 82.8826C38.8009 82.9326 39.4246 82.9226 40.0463 82.9286H40.7739C40.8679 88.3877 40.9598 93.8468 41.1937 99.3059C41.1937 99.49 41.2668 99.6665 41.3969 99.7967C41.527 99.9269 41.7034 100 41.8874 100C42.0713 100 42.2478 99.9269 42.3779 99.7967C42.5079 99.6665 42.581 99.49 42.581 99.3059C42.8309 93.4647 42.9188 87.6255 43.0248 81.7844L43.0668 77.2395L43.0808 72.6945L43.0188 63.6127C42.9888 60.9682 42.9548 58.3337 42.9029 55.6892C42.9029 55.4731 42.9029 55.2591 42.8909 55.045C47.8603 54.973 51.7683 53.6807 54.5489 51.1943V51.2103C62.187 51.2103 65.2654 44.3129 66.4768 39.6079C66.5508 39.6079 66.6228 39.6199 66.6987 39.6199C67.7855 39.6275 68.835 39.2237 69.6368 38.4895C70.4386 37.7553 70.9335 36.745 71.0221 35.661C71.1108 34.577 70.7868 33.4996 70.1151 32.6446C69.4433 31.7897 68.4734 31.2204 67.3999 31.051C66.3263 30.8815 65.2285 31.1244 64.3263 31.7309C63.4242 32.3375 62.7845 33.2628 62.5355 34.3215C62.2865 35.3801 62.4466 36.4938 62.9836 37.4394C63.5207 38.3849 64.395 39.0924 65.4314 39.4199C64.3519 43.5747 61.7512 49.4359 55.6364 50.066C55.7563 49.928 55.8782 49.794 55.9942 49.6499C56.9489 48.4457 57.7023 47.0946 58.225 45.6491C58.4662 45.6374 58.7055 45.5998 58.9387 45.5371C59.5775 45.3631 60.1535 45.0105 60.5992 44.5206C61.0448 44.0307 61.3417 43.4238 61.455 42.7711C61.5683 42.1183 61.4933 41.4468 61.2388 40.8352C60.9843 40.2236 60.5609 39.6972 60.0181 39.3179C59.8214 39.1839 59.6118 39.07 59.3924 38.9778C59.4128 37.6846 59.3393 36.3916 59.1726 35.109C60.174 34.8158 61.0271 34.1536 61.56 33.2559C62.0929 32.3582 62.266 31.2917 62.0443 30.2714C61.8225 29.251 61.2226 28.3527 60.3653 27.7575C59.5079 27.1623 58.457 26.9145 57.4244 27.0639C56.3917 27.2133 55.454 27.749 54.8003 28.5628C54.1466 29.3767 53.8255 30.4082 53.9016 31.4496C53.9778 32.491 54.4457 33.4648 55.2109 34.1746C55.9761 34.8845 56.9817 35.2778 58.0251 35.2751H58.1071C58.2501 36.4162 58.3169 37.5657 58.307 38.7158C58.213 38.7158 58.1211 38.6937 58.0251 38.6937C57.9036 38.6927 57.7821 38.6987 57.6613 38.7118C56.9068 38.7911 56.1988 39.1145 55.6446 39.6329C55.0905 40.1514 54.7204 40.8366 54.5906 41.5846C54.4609 42.3326 54.5785 43.1025 54.9255 43.7775C55.2726 44.4526 55.8303 44.9959 56.5139 45.3251L56.6079 45.3631C56.772 45.4368 56.9418 45.497 57.1156 45.5431C56.649 46.7877 55.9936 47.9529 55.1726 48.9978C52.5739 52.2185 48.448 53.8868 42.8789 53.9668V53.9308L42.8429 51.7304C48.6239 51.4883 50.439 48.4677 50.9947 46.7294C51.5698 46.6606 52.0995 46.3827 52.4832 45.9486C52.8668 45.5145 53.0776 44.9543 53.0755 44.3748C53.0733 43.7952 52.8584 43.2367 52.4715 42.8054C52.0846 42.3742 51.5529 42.1002 50.9773 42.0358C50.4018 41.9713 49.8226 42.1208 49.35 42.4558C48.8775 42.7908 48.5444 43.2879 48.4143 43.8527C48.2841 44.4174 48.366 45.0103 48.6442 45.5186C48.9224 46.0268 49.3776 46.4151 49.9233 46.6093C49.7385 47.121 49.4755 47.6008 49.1437 48.0316C47.9103 49.6319 45.7334 50.5341 42.8249 50.6621L42.7949 48.8738V48.7358H42.7789V48.0816C42.9978 48.0313 43.2109 47.9582 43.4146 47.8636C43.4925 47.8296 43.5645 47.7896 43.6365 47.7516C44.1785 47.457 44.6308 47.0214 44.9458 46.4908C45.2607 45.9601 45.4265 45.3541 45.4256 44.737C45.4271 44.5317 45.409 44.3267 45.3716 44.1248C45.3412 43.9661 45.2997 43.8097 45.2477 43.6567C46.7989 42.4905 47.7624 40.5081 48.3221 38.9018H48.3521C49.2943 38.9013 50.2015 38.5446 50.892 37.9031C51.5825 37.2617 52.0053 36.3828 52.0758 35.4426C52.1462 34.5024 51.8591 33.5703 51.2719 32.8329C50.6847 32.0956 49.8408 31.6075 48.9092 31.4664C47.9776 31.3253 47.0272 31.5416 46.2483 32.0721C45.4693 32.6025 44.9194 33.4078 44.7087 34.3268C44.4979 35.2458 44.6419 36.2105 45.1118 37.0277C45.5817 37.8449 46.3428 38.4543 47.2426 38.7338C46.7449 40.11 45.9473 41.7224 44.7459 42.6945C44.7139 42.6545 44.6899 42.6085 44.658 42.5685C44.5179 42.3937 44.3605 42.2335 44.1882 42.0904C43.9365 41.8799 43.6557 41.7067 43.3546 41.5763C43.1487 41.49 42.9352 41.423 42.7169 41.3763L42.697 39.4099L42.677 36.3333L42.655 33.0226V32.3825C42.8729 32.3525 43.0868 32.3085 43.2947 32.2585C44.6186 31.9175 45.7728 31.105 46.5408 29.9732C47.3088 28.8414 47.6377 27.4681 47.466 26.1109C47.2943 24.7537 46.6338 23.5057 45.6082 22.6012C44.5826 21.6966 43.2625 21.1975 41.8954 21.1975C40.5283 21.1975 39.2082 21.6966 38.1826 22.6012C37.157 23.5057 36.4964 24.7537 36.3247 26.1109C36.153 27.4681 36.482 28.8414 37.25 29.9732C38.0179 31.105 39.1721 31.9175 40.4961 32.2585C40.696 32.3085 40.9199 32.3525 41.1378 32.3825V33.0226L41.1158 36.3333V37.6235V38.2637C40.902 38.2644 40.6883 38.2517 40.4761 38.2257C38.3632 37.9856 37.2198 36.7774 36.6001 35.5891C36.5661 35.5231 36.5341 35.4591 36.5041 35.3891C36.9641 34.921 37.2367 34.3005 37.2704 33.6449C37.3042 32.9893 37.0967 32.344 36.6872 31.8311C36.2777 31.3183 35.6946 30.9733 35.0482 30.8615C34.4017 30.7497 33.7368 30.8788 33.1791 31.2245C32.6213 31.5701 32.2094 32.1082 32.0214 32.7371C31.8333 33.366 31.882 34.0421 32.1583 34.6375C32.4346 35.2329 32.9193 35.7064 33.5208 35.9684C34.1224 36.2303 34.799 36.2627 35.4227 36.0592C36.1863 37.6175 37.6535 39.2599 40.4681 39.5079C40.668 39.5299 40.8859 39.5419 41.1078 39.5459V40.182L41.0938 41.4283C40.8723 41.4905 40.6579 41.5756 40.4541 41.6823C40.0752 41.8785 39.7362 42.1438 39.4546 42.4645C39.2871 42.653 39.1422 42.8604 39.0228 43.0826C38.8415 43.4082 38.7159 43.7618 38.651 44.1288C38.6168 44.327 38.5994 44.5278 38.599 44.729V44.763C38.6058 45.3752 38.7763 45.9745 39.0926 46.4987C39.409 47.0228 39.8597 47.4526 40.3981 47.7436C40.5829 47.8509 40.7778 47.9401 40.9798 48.0096L40.9538 50.086V50.7302C40.736 50.7302 40.5221 50.7082 40.3142 50.6882C37.3777 50.4301 35.0369 49.4279 33.3377 47.6875C32.1766 46.4702 31.3299 44.9877 30.871 43.3687C30.871 43.3467 30.859 43.3207 30.849 43.2907C30.839 43.2607 30.829 43.2267 30.819 43.1926C30.8199 43.1908 30.8204 43.1887 30.8204 43.1866C30.8204 43.1846 30.8199 43.1825 30.819 43.1806C30.807 43.1326 30.793 43.0846 30.781 43.0386C31.3912 42.8623 31.9417 42.5229 32.3735 42.0569C32.8053 41.5909 33.1021 41.016 33.2319 40.3939C33.3617 39.7718 33.3196 39.1261 33.1102 38.5261C32.9007 37.9262 32.5319 37.3947 32.0432 36.9887C31.5546 36.5828 30.9647 36.3179 30.3368 36.2223C29.709 36.1267 29.067 36.2042 28.4799 36.4464C27.8927 36.6886 27.3827 37.0863 27.0044 37.5968C26.6262 38.1073 26.3942 38.7113 26.3333 39.3439C25.3279 39.0856 24.4177 38.544 23.7106 37.7836C23.1626 37.1546 22.7811 36.398 22.6012 35.5831C23.3308 35.4792 23.9955 35.1066 24.4652 34.5383C24.9348 33.97 25.1758 33.2468 25.141 32.5101C25.1062 31.7734 24.798 31.0762 24.2768 30.5549C23.7556 30.0335 23.0588 29.7254 22.3226 29.6908C21.5865 29.6562 20.8639 29.8977 20.2961 30.3679C19.7284 30.8382 19.3564 31.5034 19.2528 32.2336C19.1491 32.9637 19.3214 33.7063 19.7358 34.3162C20.1503 34.926 20.7771 35.3592 21.4938 35.5311C21.6848 36.625 22.1683 37.6467 22.8931 38.4877C23.7526 39.4619 24.928 40.126 26.4013 40.4881C26.5764 41.2371 26.9936 41.9073 27.5882 42.3948C28.1827 42.8823 28.9213 43.16 29.6896 43.1847C30.1708 45.1559 31.159 46.9669 32.5561 48.4377C34.2473 50.1634 36.4728 51.2303 39.2327 51.6383H39.4506L39.4806 51.6684C39.6165 51.6844 39.7545 51.7024 39.8904 51.7144C40.0263 51.7264 40.1463 51.7444 40.2782 51.7524C40.4881 51.7744 40.702 51.7884 40.9139 51.7964V52.4365C40.3411 52.4122 39.7699 52.3581 39.2027 52.2745C39.1969 52.2763 39.1906 52.2763 39.1848 52.2745C29.9215 51.9324 25.9875 49.81 24.3083 47.9896C24.1864 47.8576 24.0805 47.7276 23.9825 47.5895C24.6779 47.2311 25.2142 46.6255 25.4862 45.8916C25.7582 45.1577 25.7461 44.3486 25.4524 43.6231C25.1586 42.8977 24.6045 42.3083 23.8987 41.9709C23.193 41.6334 22.3866 41.5722 21.6381 41.7993C20.8895 42.0263 20.2529 42.5253 19.8531 43.1981C19.4534 43.8709 19.3195 44.669 19.4778 45.4356C19.636 46.2021 20.075 46.8818 20.7084 47.341C21.3418 47.8003 22.1239 48.0059 22.9011 47.9176C23.0746 48.1732 23.2657 48.4165 23.4728 48.6457C25.3678 50.7482 29.9255 53.2467 40.8979 53.3747L40.8879 54.0148V54.4989C40.8879 54.6769 40.8879 54.861 40.8879 55.041C40.8879 55.2591 40.8739 55.4771 40.8739 55.6912C29.9515 56.8914 21.9675 55.3451 17.136 51.1202C15.6705 49.8501 14.5027 48.2724 13.7157 46.4993C14.7697 46.1113 15.6401 45.3419 16.1548 44.3431C16.6696 43.3443 16.7915 42.1886 16.4963 41.1042C16.2011 40.0199 15.5104 39.0857 14.5605 38.4861C13.6107 37.8866 12.4706 37.6652 11.3656 37.8657C10.2606 38.0663 9.27085 38.6741 8.59183 39.5693C7.91281 40.4644 7.59387 41.5819 7.69797 42.7009C7.80208 43.8199 8.32167 44.8592 9.15415 45.6135C9.98663 46.3678 11.0715 46.7824 12.1945 46.7754C12.3444 46.7754 12.4904 46.7754 12.6343 46.7534C13.4816 48.7356 14.7664 50.5 16.3924 51.9144C20.3664 55.4051 26.3093 57.1574 34.1253 57.1574C36.3674 57.151 38.6075 57.0241 40.8359 56.7774C40.8359 56.9954 40.8359 57.2075 40.8359 57.4215C40.7959 59.4859 40.7759 61.5443 40.7539 63.6027L40.694 72.6945L40.706 77.2395L40.7539 81.7844V81.8164C36.3016 81.7052 31.8991 80.8499 27.7286 79.2859C18.7034 75.8206 11.2779 69.1373 6.88123 60.5221C4.7248 56.2757 3.38618 51.6612 2.93525 46.9194C2.71637 44.5588 2.71235 42.1833 2.92325 39.822C3.12263 37.4655 3.53885 35.1325 4.16662 32.8526C5.42335 28.2892 7.52912 24.0041 10.3735 20.2221C13.209 16.4458 16.72 13.2288 20.7282 10.7342C28.7809 5.70315 38.4271 3.87965 47.7588 5.62434C57.0906 7.36903 65.4282 12.5549 71.1225 20.156C73.9356 23.9234 76.0358 28.1743 77.3193 32.6986C78.6006 37.2338 79.0217 41.969 78.5607 46.6593C78.1058 51.3548 76.7862 55.9253 74.6686 60.14C72.527 64.3582 69.6399 68.1535 66.147 71.3423C62.9065 74.2278 59.2234 76.5729 55.2386 78.2877C54.9236 78.4203 54.6743 78.6727 54.5453 78.9893C54.4164 79.3059 54.4184 79.6609 54.5509 79.976C54.6835 80.2911 54.9357 80.5407 55.2521 80.6697C55.5685 80.7988 55.9231 80.7968 56.238 80.6641C58.1898 79.9067 60.0771 78.9922 61.8812 77.9296C62.4229 77.6015 62.9826 77.2975 63.5103 76.9454L65.0715 75.8552L65.8512 75.3091L66.5888 74.709L68.066 73.5087C71.8972 70.1368 75.0852 66.0972 77.4752 61.5863C82.1965 52.3916 83.3144 41.7633 80.6096 31.7864Z" fill="#F16767"/>
</svg>
